HIERARCHY
ROOT Hips
{
	OFFSET 0.000000 0.000000 0.000000
	CHANNELS 6 Xposition Yposition Zposition Zrotation Yrotation Xrotation 
	JOINT LHipJoint
	{
		OFFSET 0.000000 0.000000 0.000000
		CHANNELS 3 Zrotation Yrotation Xrotation
		JOINT LeftUpLeg
		{
			OFFSET 1.363060 -1.794630 0.839290
			CHANNELS 3 Zrotation Yrotation Xrotation
			JOINT LeftLeg
			{
				OFFSET 2.448110 -6.726130 0.000000
				CHANNELS 3 Zrotation Yrotation Xrotation
				JOINT LeftFoot
				{
					OFFSET 2.562200 -7.039590 0.000000
					CHANNELS 3 Zrotation Yrotation Xrotation
					JOINT LeftToeBase
					{
						OFFSET 0.157640 -0.433110 2.322550
						CHANNELS 3 Zrotation Yrotation Xrotation
						End Site
						{
							OFFSET 0.000000 0.000000 0.000000
						}
					}
				}
			}
		}
	}
	JOINT RHipJoint
	{
		OFFSET 0.000000 0.000000 0.000000
		CHANNELS 3 Zrotation Yrotation Xrotation
		JOINT RightUpLeg
		{
			OFFSET -1.305520 -1.794630 0.839290
			CHANNELS 3 Zrotation Yrotation Xrotation
			JOINT RightLeg
			{
				OFFSET -2.542530 -6.985550 0.000000
				CHANNELS 3 Zrotation Yrotation Xrotation
				JOINT RightFoot
				{
					OFFSET -2.568260 -7.056230 0.000000
					CHANNELS 3 Zrotation Yrotation Xrotation
					JOINT RightToeBase
					{
						OFFSET -0.164730 -0.452590 2.363150
						CHANNELS 3 Zrotation Yrotation Xrotation
						End Site
						{
							OFFSET 0.000000 0.000000 0.000000
						}
					}
				}
			}
		}
	}
	JOINT LowerBack
	{
		OFFSET 0.000000 0.000000 0.000000
		CHANNELS 3 Zrotation Yrotation Xrotation
		JOINT Spine
		{
			OFFSET 0.028270 2.035590 -0.193380
			CHANNELS 3 Zrotation Yrotation Xrotation
			JOINT Spine1
			{
				OFFSET 0.056720 2.048850 -0.042750
				CHANNELS 3 Zrotation Yrotation Xrotation
				JOINT Neck
				{
					OFFSET 0.000000 0.000000 0.000000
					CHANNELS 3 Zrotation Yrotation Xrotation
					JOINT Neck1
					{
						OFFSET -0.054170 1.746240 0.172020
						CHANNELS 3 Zrotation Yrotation Xrotation
						JOINT Head
						{
							OFFSET 0.104070 1.761360 -0.123970
							CHANNELS 3 Zrotation Yrotation Xrotation
							End Site
							{
								OFFSET 0.000000 0.000000 0.000000
							}
						}
					}
				}
				JOINT LeftShoulder
				{
					OFFSET 0.000000 0.000000 0.000000
					CHANNELS 3 Zrotation Yrotation Xrotation
					JOINT LeftArm
					{
						OFFSET 3.362410 1.200890 -0.311210
						CHANNELS 3 Zrotation Yrotation Xrotation
						JOINT LeftForeArm
						{
							OFFSET 4.983000 -0.000000 -0.000000
							CHANNELS 3 Zrotation Yrotation Xrotation
							JOINT LeftHand
							{
								OFFSET 3.483560 -0.000000 -0.000000
								CHANNELS 3 Zrotation Yrotation Xrotation
								JOINT LeftFingerBase
								{
									OFFSET 0.000000 0.000000 0.000000
									CHANNELS 3 Zrotation Yrotation Xrotation
									JOINT LeftHandIndex1
									{
										OFFSET 0.715260 -0.000000 -0.000000
										CHANNELS 3 Zrotation Yrotation Xrotation
										End Site
										{
											OFFSET 0.000000 0.000000 0.000000
										}
									}
								}
								JOINT LThumb
								{
									OFFSET 0.000000 0.000000 0.000000
									CHANNELS 3 Zrotation Yrotation Xrotation
									End Site
									{
										OFFSET 0.000000 0.000000 0.000000
									}
								}
							}
						}
					}
				}
				JOINT RightShoulder
				{
					OFFSET 0.000000 0.000000 0.000000
					CHANNELS 3 Zrotation Yrotation Xrotation
					JOINT RightArm
					{
						OFFSET -3.136600 1.374050 -0.404650
						CHANNELS 3 Zrotation Yrotation Xrotation
						JOINT RightForeArm
						{
							OFFSET -5.241900 -0.000000 -0.000000
							CHANNELS 3 Zrotation Yrotation Xrotation
							JOINT RightHand
							{
								OFFSET -3.444170 -0.000000 -0.000000
								CHANNELS 3 Zrotation Yrotation Xrotation
								JOINT RightFingerBase
								{
									OFFSET 0.000000 0.000000 0.000000
									CHANNELS 3 Zrotation Yrotation Xrotation
									JOINT RightHandIndex1
									{
										OFFSET -0.622530 -0.000000 -0.000000
										CHANNELS 3 Zrotation Yrotation Xrotation
										End Site
										{
											OFFSET 0.000000 0.000000 0.000000
										}
									}
								}
								JOINT RThumb
								{
									OFFSET 0.000000 0.000000 0.000000
									CHANNELS 3 Zrotation Yrotation Xrotation
									End Site
									{
										OFFSET 0.000000 0.000000 0.000000
									}
								}
							}
						}
					}
				}
			}
		}
	}
}
MOTION
Frames: 8
Frame Time: 0.008333
7.047005 17.676506 43.317402 -132.758491 -80.693453 143.821017 -7.038568 -2.043403 0.528985 -10.547371 9.073060 -25.654534 -0.055790 8.437976 23.718998 0.403932 3.295468 7.260106 0.026000 -1.041300 -2.862400 6.777959 1.838483 -0.461505 6.617022 -2.346531 -26.082018 -0.581949 -9.440244 25.136076 4.047988 -13.849768 4.922246 -0.641500 5.124200 -14.263100 3.387274 0.752009 1.184574 1.196250 0.764360 -3.817702 -5.453368 0.707749 5.235237 -2.157888 -4.659772 -9.772249 10.692946 -6.374264 0.462993 6.124100 -2.686400 0.840300 5.885889 1.677980 0.001463 -39.181704 8.239116 91.906731 77.480545 -61.980264 -51.208117 1.622463 -2.242906 -1.692496 30.099360 -39.863436 -18.488800 -7.125000 0.000000 0.000000 -3.092200 -11.563700 3.654100 -11.332581 -0.421964 2.608887 54.565696 -13.692132 89.992069 -80.930620 60.447695 -49.735929 -1.087387 -0.128550 13.170348 -48.047935 20.655153 -21.611700 7.125000 0.000000 0.000000 -11.033000 -0.240300 -11.196500 
7.065003 17.676085 43.320244 -133.457932 -80.396129 144.592700 -7.005901 -2.065103 0.494526 -10.456637 9.086067 -25.766974 -0.026769 8.463027 23.789230 0.302566 3.531870 7.091203 0.015900 -0.815100 -2.240100 6.803052 1.851054 -0.449557 6.767912 -2.292830 -26.117616 -0.528071 -9.408469 25.101542 3.803540 -13.199464 4.590213 -0.766600 5.591100 -15.602600 3.414178 0.760556 1.253038 1.190526 0.778646 -3.809925 -5.483212 0.709041 5.218792 -2.067068 -4.638163 -9.635837 10.682891 -6.310264 0.204930 6.114100 -2.661100 0.683400 5.885124 1.693361 0.007664 -38.972313 8.353781 91.944866 77.889200 -62.029589 -51.545299 1.660504 -2.235734 -1.680116 31.190185 -39.491898 -19.106300 -7.125000 0.000000 0.000000 -2.464000 -11.511600 2.908600 -11.330683 -0.411478 2.620866 54.583669 -13.817125 89.908740 -81.169756 60.461194 -49.931550 -1.091639 -0.130367 13.204566 -47.980103 20.562262 -21.485200 7.125000 0.000000 0.000000 -11.014200 -0.383500 -11.148600 
7.081843 17.673664 43.322770 -134.444936 -80.096523 145.649888 -6.982069 -2.086018 0.466730 -10.422803 9.109570 -25.870617 -0.009689 8.471994 23.816157 0.208859 3.756102 7.029620 0.003000 -0.354600 -0.974300 6.811603 1.867000 -0.438274 6.942481 -2.427139 -26.237055 -0.495815 -9.402501 25.133005 3.546417 -12.539839 4.386899 -0.867300 5.938100 -16.605000 3.413778 0.763243 1.313548 1.182667 0.785891 -3.806684 -5.527007 0.706672 5.193547 -2.011625 -4.599362 -9.550817 10.670491 -6.231398 0.022882 6.105000 -2.627000 0.571400 5.888949 1.699157 0.015198 -39.088007 8.372073 91.921516 77.686087 -62.011808 -51.364597 1.655751 -2.220548 -1.737011 31.252768 -39.357963 -19.106200 -7.125000 0.000000 0.000000 -2.398400 -11.405200 2.827600 -11.339452 -0.401813 2.628220 54.699103 -13.894000 89.785300 -81.074939 60.468247 -49.859732 -1.094552 -0.126795 13.209578 -47.991855 20.867730 -21.757500 7.125000 0.000000 0.000000 -10.942200 0.012200 -11.149800 
7.100368 17.675980 43.321086 -135.559071 -79.781404 146.813391 -6.955489 -2.102807 0.445275 -10.373429 9.124682 -25.958798 0.008348 8.482799 23.853388 0.139912 3.913796 6.904970 0.001000 0.203100 0.558000 6.870809 1.859184 -0.428902 6.985417 -1.990647 -26.080158 -0.486648 -9.409150 25.174185 3.635824 -12.686869 3.788248 -1.003100 6.373200 -17.871300 3.299564 0.720614 1.386350 1.167447 0.739619 -3.813355 -5.564565 0.672569 5.122269 -1.795206 -4.466152 -9.419082 10.646708 -6.037936 -0.099195 6.058300 -2.545400 0.455500 5.890528 1.712886 0.013176 -38.793120 8.662236 91.882874 78.138338 -62.079487 -51.797272 1.667835 -2.245157 -1.774476 31.221693 -39.501383 -19.125500 -7.125000 0.000000 0.000000 -2.448500 -11.516800 2.890400 -11.344486 -0.392466 2.641798 54.889286 -13.905609 89.847997 -80.973152 60.468951 -49.746700 -1.092340 -0.132463 13.262964 -48.006270 20.823893 -21.738500 7.125000 0.000000 0.000000 -10.961800 -0.026900 -11.162900 
7.117945 17.675454 43.324138 -136.321034 -79.583638 147.634113 -6.946517 -2.112319 0.414394 -10.356682 9.073422 -26.001217 0.036275 8.490813 23.836831 -0.220647 4.763552 6.628349 0.049200 -1.431200 -3.936100 6.858158 1.868269 -0.412322 7.162873 -2.230312 -26.198759 -0.490322 -9.449184 25.337637 3.474839 -12.233220 3.233340 -0.876700 5.969500 -16.695900 3.253689 0.714752 1.430273 1.168741 0.734712 -3.803470 -5.558134 0.664261 5.146087 -1.794239 -4.449308 -9.455344 10.599347 -6.003846 -0.178292 6.032100 -2.528000 0.418400 5.899441 1.708713 0.021646 -39.114688 8.513997 91.867125 77.676431 -62.027462 -51.372834 1.649134 -2.224584 -1.806516 30.986828 -39.497875 -18.974500 -7.125000 0.000000 0.000000 -2.562800 -11.463900 3.023800 -11.348652 -0.391130 2.640725 54.896248 -13.994645 89.670726 -81.056223 60.477145 -49.839945 -1.102125 -0.121580 13.017887 -47.797061 21.423128 -22.089400 7.125000 0.000000 0.000000 -10.686100 0.629200 -10.995000 
7.135102 17.674717 43.323086 -137.443344 -79.218442 148.833324 -6.921131 -2.127380 0.394000 -10.309088 9.099891 -26.085875 0.045802 8.483918 23.818266 -0.317436 4.988454 6.513003 0.018700 -0.883900 -2.429500 6.892234 1.870180 -0.402076 7.360375 -2.144105 -26.212316 -0.516928 -9.510663 25.540311 3.562644 -12.387455 2.602756 -0.863800 5.926400 -16.571100 3.211180 0.763660 1.450506 1.149975 0.803416 -3.804976 -5.585174 0.693050 5.139010 -1.741814 -4.406875 -9.505877 10.575423 -5.950658 -0.176541 6.012600 -2.502100 0.423500 5.898723 1.706635 0.020006 -39.036667 8.531036 91.888989 77.693059 -62.025055 -51.397010 1.649451 -2.226766 -1.810204 30.993529 -39.441487 -18.955200 -7.125000 0.000000 0.000000 -2.545000 -11.404100 3.000600 -11.356774 -0.395759 2.637059 55.056084 -14.127898 89.569142 -80.901955 60.484163 -49.701178 -1.097452 -0.129711 13.033186 -47.683665 21.262559 -21.880400 7.125000 0.000000 0.000000 -10.664400 0.385200 -10.926400 
7.152889 17.676611 43.331611 -139.512103 -79.142040 151.022495 -6.934300 -2.151257 0.373362 -10.596970 9.015113 -26.202783 0.030938 8.466710 23.767046 -0.452886 5.286462 6.356275 0.016400 -0.827200 -2.273400 6.854728 1.885152 -0.417521 7.264052 -2.212590 -26.329092 -0.588287 -9.606521 25.838292 3.683375 -12.620240 1.942909 -0.844900 5.862800 -16.387000 2.891702 0.745631 1.392539 1.111942 0.788884 -3.812854 -5.588985 0.676450 5.157077 -1.703463 -4.351902 -9.612462 10.516448 -5.885494 -0.114211 5.977800 -2.468100 0.463300 5.886817 1.707694 0.010527 -38.839588 8.601673 91.924923 78.074318 -62.067309 -51.734457 1.661085 -2.243683 -1.835040 30.959721 -39.498078 -18.940200 -7.125000 0.000000 0.000000 -2.577700 -11.433600 3.040300 -11.368816 -0.404960 2.632733 55.117381 -14.178739 89.553432 -81.032117 60.490550 -49.798498 -1.099366 -0.132639 12.957806 -47.714231 21.284479 -21.923300 7.125000 0.000000 0.000000 -10.674400 0.431000 -10.945500 
7.170256 17.675454 43.331717 -140.701779 -78.872964 152.321420 -6.914695 -2.169230 0.351408 -10.675872 9.122469 -26.367207 0.036854 8.457198 23.732817 -0.587908 5.601496 6.265910 0.024700 -1.015500 -2.791500 6.849108 1.894773 -0.409434 7.462536 -2.372479 -26.462794 -0.650066 -9.712530 26.181310 3.734616 -12.699963 1.342286 -0.773400 5.615200 -15.672000 2.770945 0.789977 1.352257 1.094652 0.852622 -3.820144 -5.572081 0.702042 5.166009 -1.707853 -4.330994 -9.743421 10.440109 -5.870041 0.001602 5.938600 -2.456600 0.538600 5.889436 1.695399 0.005498 -38.886879 8.497026 91.976253 78.029873 -62.052407 -51.687161 1.666463 -2.246039 -1.892910 31.364307 -39.954461 -19.416900 -7.125000 0.000000 0.000000 -2.481400 -12.027900 2.946500 -11.379521 -0.414064 2.620570 55.310174 -14.287494 89.372203 -80.597749 60.490664 -49.444794 -1.088762 -0.140380 12.967683 -47.728972 21.230742 -21.898000 7.125000 0.000000 0.000000 -10.702800 0.376700 -10.965600 
